<svg width="31" height="31" viewBox="0 0 31 31" fill="none" xmlns="http://www.w3.org/2000/svg">
<path d="M30.0039 17.0254H30.2969C30.707 16.2051 30.9414 15.2676 31 14.2129C31 12.2793 30.1211 10.5801 28.7734 9.34961C27.8945 6.24414 25.0234 3.90039 21.625 3.90039C21.3906 3.90039 21.1562 3.95898 20.9805 4.01758C19.9258 1.73242 17.6992 0.150391 15.0625 0.150391C12.4258 0.150391 10.1406 1.73242 9.08594 4.01758C8.91016 3.95898 8.67578 3.90039 8.5 3.90039C4.33984 3.90039 1 7.29883 1 11.4004C1 13.6855 1.99609 15.6777 3.57812 17.0254H1.9375C1.41016 17.0254 0.941406 17.4941 1 18.0215C1.35156 22.5332 4.39844 26.2246 8.5 27.6309V28.2754C8.5 29.3301 9.32031 30.1504 10.375 30.1504H21.625C22.6797 30.1504 23.5 29.3301 23.5 28.2754V27.6309C27.543 26.166 30.5898 22.4746 30.9414 18.0215C31 17.4941 30.5898 17.0254 30.0039 17.0254ZM29.125 14.2129C29.0664 15.3262 28.7148 16.2637 28.1289 17.0254H20.6875C20.1016 16.2637 19.75 15.3262 19.75 14.2129C19.75 11.6348 21.8008 9.52539 24.4375 9.52539C27.0156 9.52539 29.125 11.6348 29.125 14.2129ZM2.875 11.4004C2.875 9.34961 4.22266 5.30664 10.375 5.77539C11.957 2.08398 14.1836 2.02539 15.0625 2.02539C15.8828 2.02539 18.1094 2.02539 19.75 5.77539C21.8008 5.6582 24.2031 5.7168 25.9609 7.88477C25.4336 7.76758 24.9062 7.70898 24.4375 7.65039C20.8047 7.70898 17.875 10.6387 17.875 14.2129C17.875 15.2676 18.1094 16.2051 18.5195 17.0254H16V6.24414C16 6.00977 15.7656 5.77539 15.5312 5.77539H14.5938C14.3008 5.77539 14.125 6.00977 14.125 6.24414V15.7363L7.62109 9.23242C7.50391 9.11523 7.38672 9.11523 7.26953 9.11523C7.15234 9.11523 7.03516 9.11523 6.91797 9.23242L6.27344 9.87695C6.15625 9.99414 6.09766 10.1113 6.09766 10.2285C6.09766 10.3457 6.15625 10.4629 6.27344 10.5215L12.7773 17.0254H8.5C5.39453 17.0254 2.875 14.5059 2.875 11.4004ZM22.8555 25.873L21.625 26.2832V28.2754H10.375V26.2832L9.08594 25.873C5.98047 24.7598 3.63672 22.123 2.99219 18.9004H28.9492C28.3047 22.123 26.0195 24.7598 22.8555 25.873Z" fill="#FF7800"/>
</svg>
