<svg width="29" height="22" viewBox="0 0 29 22" fill="none" xmlns="http://www.w3.org/2000/svg">
<path d="M25.5977 0.0878906C24.4258 0.136719 18.5664 0.527344 14.9043 2.48047C14.709 2.57812 14.3672 2.57812 14.1719 2.48047C10.5098 0.527344 4.65039 0.136719 3.47852 0.0878906C1.81836 0.0878906 0.5 1.40625 0.5 3.01758V17.4707C0.5 19.0332 1.7207 20.2539 3.2832 20.3516C4.99219 20.4492 9.24023 20.7422 12.1699 21.8164C12.4629 21.9141 12.707 21.9629 12.9512 21.9629H16.0762C16.3691 21.9629 16.6133 21.9141 16.9062 21.8164C19.8359 20.7422 24.084 20.4492 25.793 20.3516C27.3555 20.2539 28.5762 19.0332 28.5762 17.4707V3.01758C28.625 1.40625 27.2578 0.0878906 25.5977 0.0878906ZM13.7812 19.668C13.7812 20.1074 13.3906 20.4492 13 20.4492C12.9023 20.4492 12.8535 20.4004 12.7559 20.4004C9.67969 19.2285 5.48047 18.8867 3.38086 18.7891C2.64844 18.7402 2.0625 18.2031 2.0625 17.4707V3.01758C2.0625 2.28516 2.69727 1.69922 3.47852 1.69922C4.40625 1.69922 9.43555 2.04102 12.8535 3.55469C13.3906 3.79883 13.7324 4.33594 13.7324 4.92188L13.7812 9.80469V19.668ZM27.0625 17.4707C27.0625 18.2031 26.4277 18.7402 25.6953 18.7891C23.5957 18.8867 19.3965 19.2285 16.3203 20.4004C16.2227 20.4004 16.1738 20.4492 16.0762 20.4492C15.6855 20.4492 15.2949 20.1074 15.2949 19.668V9.80469L15.3438 4.92188C15.3438 4.33594 15.6855 3.79883 16.2227 3.55469C19.6406 2.04102 24.6699 1.69922 25.5977 1.69922C26.3789 1.69922 27.0137 2.28516 27.0137 3.01758V17.4707H27.0625Z" fill="#FF7800"/>
</svg>
